<svg width="391" height="120" viewBox="0 0 391 120" fill="none" xmlns="http://www.w3.org/2000/svg">
<path d="M132.65 0H101.71V18.18H132.65V0Z" fill="white"/>
<path d="M16.1 79.83C24.9698 88.2989 36.7664 93.0169 49.03 93C54.85 93 60.36 91 60.36 87C60.36 83 56.07 81 45.96 79.18C29.12 76.12 3.38 72.18 3.38 46.56C3.38 29.25 17.78 13.48 45.81 13.48C62.5 13.48 77.51 18.23 89.15 27.72L72.61 49.62C63.73 42.89 52.24 39.52 44.12 39.52C36.47 39.52 34.78 42.27 34.78 44.88C34.78 48.88 38.92 50.24 49.78 52.08C66.63 54.99 91.6 59.89 91.6 83.47C91.6 105.99 74.9 119.01 47.49 119.01C25.74 119.01 10.88 112.57 0 102.77L16.1 79.83Z" fill="white"/>
<path d="M101.71 117.2V26.05H132.65V117.2H101.71Z" fill="white"/>
<path d="M149.19 100.47V117.2H165.93L149.19 100.47Z" fill="white"/>
<path d="M232.69 117.2H263.63V66.55L232.69 97.49V117.2Z" fill="white"/>
<path d="M356.72 117.2L352.72 104.03H313.5L309.5 117.2H276L313.68 15.04H352.58L390.26 117.2H356.72ZM333.13 42.3L321.49 78.3H344.77L333.13 42.3Z" fill="white"/>
<path d="M263.63 0.0400009V43.22L232.69 74.17L189.66 117.2L168.03 95.57L168.04 95.56L149.19 76.71V33.48L149.2 33.46L189.67 73.93L263.59 0L263.63 0.0400009Z" fill="white"/>
</svg>
